<svg version="1.1" id="Layer_1" xmlns="http://www.w3.org/2000/svg" xmlns:xlink="http://www.w3.org/1999/xlink" x="0px" y="0px"
	 width="100%" viewBox="0 0 784 1024" enable-background="new 0 0 784 1024" xml:space="preserve">
<path fill="#000000" opacity="1.000000" stroke="white"
	d="
M264.718201,574.095825 
	C264.716553,571.264893 264.483643,569.203369 261.700775,568.039001 
	C247.011856,561.892700 243.132965,549.325012 243.148438,535.059021 
	C243.157730,526.498901 245.352219,518.210144 250.485886,511.044373 
	C251.640350,509.432953 252.829239,507.340149 254.484818,506.681030 
	C261.819977,503.760742 263.966034,496.883484 267.254150,490.859222 
	C269.708405,486.362701 267.789856,482.291992 262.845154,481.270020 
	C221.868225,472.800812 192.526169,436.948273 192.693207,395.064087 
	C192.837219,358.957397 208.926010,332.208008 241.041183,315.536102 
	C253.240463,309.203094 266.625610,307.031921 280.267426,307.153778 
	C285.372589,307.199402 287.701813,305.827881 289.381195,300.600769 
	C296.752594,277.657593 310.852600,260.803101 335.017761,254.439438 
	C360.096405,247.835205 384.873138,257.759583 398.718018,279.674164 
	C400.596802,282.648071 402.355377,283.596405 405.940094,282.978638 
	C415.834839,281.273499 425.850281,281.067383 435.793030,282.697784 
	C439.801239,283.355042 441.817535,281.634277 443.750092,278.406097 
	C453.153778,262.697784 466.503723,252.213165 484.986450,249.892792 
	C506.170593,247.233231 524.381531,254.204422 539.746887,268.817444 
	C555.914673,284.193604 563.890808,303.627045 567.257446,325.235352 
	C567.902039,329.373016 569.364929,332.396576 572.825989,335.173889 
	C599.002747,356.179230 608.226135,391.587769 596.870117,425.762268 
	C590.196777,445.845001 577.539185,461.247498 560.317810,473.164673 
	C559.230530,473.917084 558.166809,474.703491 557.121704,475.452820 
	C557.007996,477.724548 558.740234,478.766113 559.835205,480.119202 
	C571.035950,493.960541 580.329895,508.878265 585.714478,525.987183 
	C591.637878,544.808289 589.969910,562.831360 579.629028,579.798279 
	C578.157410,582.212891 577.752808,584.405823 577.977478,587.260498 
	C578.669189,596.048706 579.071045,604.879517 577.545532,613.660400 
	C577.268494,615.254700 576.826721,616.926880 577.844727,618.931213 
	C592.164368,617.739929 600.685852,626.234497 607.525391,637.523010 
	C612.127808,645.119263 618.525574,651.315918 624.105347,658.150452 
	C625.053345,659.311707 626.108582,660.386475 627.038147,661.561462 
	C635.867126,672.722290 633.129944,681.704346 619.412170,685.415771 
	C604.555786,689.435425 589.671082,688.191956 575.018860,684.160278 
	C571.493774,683.190308 568.762207,683.361084 565.626953,685.235046 
	C540.894409,700.018616 514.452087,710.126587 485.733032,713.746277 
	C478.959106,714.600037 472.124939,714.924805 465.299377,714.406860 
	C462.305389,714.179565 459.998199,714.919250 457.605469,716.943359 
	C430.772308,739.643127 403.827087,762.210327 376.904510,784.804321 
	C375.109894,786.310303 373.153717,787.562317 370.927399,788.372803 
	C365.230316,790.446838 358.998840,788.313660 356.186401,783.295776 
	C353.456451,778.425049 354.687042,774.340576 360.128174,769.992920 
	C384.211121,750.749573 408.004608,731.154358 431.496765,711.194092 
	C432.860321,710.035583 434.547516,709.130249 435.183105,707.250488 
	C434.777130,705.620605 433.367432,704.897705 432.240601,703.970276 
	C426.952942,699.618408 422.979248,694.339661 421.260620,687.658020 
	C420.378662,684.229126 418.172058,683.224121 415.056488,682.177185 
	C403.818878,678.400635 394.512939,683.701050 386.192627,689.282471 
	C354.926300,710.256409 324.177307,732.001282 293.221893,753.439148 
	C287.881073,757.137939 282.466553,760.730103 277.110413,764.406982 
	C273.963196,766.567444 270.528809,767.659485 266.724274,767.158936 
	C261.796204,766.510559 258.311554,763.776672 256.985321,759.018311 
	C255.689453,754.368958 258.030701,751.044006 261.860229,748.511963 
	C276.454224,738.862976 291.047852,729.212769 305.582397,719.474609 
	C316.631805,712.071533 327.591614,704.534790 338.939484,696.820801 
	C337.039276,695.037842 335.004547,695.418884 333.153137,695.340637 
	C325.773224,695.028503 318.581482,693.698303 311.655396,691.168579 
	C286.553009,682.000061 277.467865,657.237000 290.615509,633.908813 
	C297.111176,622.383423 306.618896,613.916931 318.145691,607.751892 
	C322.016510,605.681519 323.714172,603.576050 322.960144,598.880676 
	C321.774811,591.499084 321.485748,584.002991 322.528381,576.478149 
	C323.164093,571.890198 321.495850,570.567627 317.059296,571.611877 
	C312.329193,572.725220 307.584747,573.523926 302.722076,573.294189 
	C299.930420,573.162292 298.394379,574.144104 298.020905,577.114807 
	C297.724213,579.474854 296.376373,581.440247 294.480164,582.970886 
	C288.614960,587.705444 274.189423,587.674561 268.439514,582.886230 
	C265.829590,580.712769 264.669952,577.877197 264.718201,574.095825 
M427.792450,560.912415 
	C430.506073,560.579285 433.311493,561.299011 434.288788,563.678223 
	C437.360840,571.157471 443.609650,568.152283 448.823090,568.566589 
	C450.292175,568.683350 451.096619,567.682800 451.889313,566.446533 
	C456.173615,559.764587 457.843262,559.352417 464.692596,562.940613 
	C470.934296,558.953430 471.726440,559.127686 478.725189,566.370667 
	C483.517548,560.612915 490.730713,558.154297 496.654755,554.155884 
	C495.892761,552.463074 495.071869,552.289795 494.227783,552.307373 
	C481.758392,552.566528 469.289459,552.845886 456.820312,553.115417 
	C455.179596,553.150879 454.169281,553.904480 453.254150,555.341370 
	C448.225342,563.237488 444.793732,563.238953 439.434509,555.498535 
	C437.115234,552.148621 431.944092,552.377380 430.284454,556.040466 
	C429.438751,557.907166 428.231842,559.443420 426.200897,561.067871 
	C423.402802,561.860535 420.875366,560.174011 418.167236,559.785583 
	C418.167236,561.990112 418.123840,563.791138 418.182892,565.588867 
	C418.220520,566.734131 418.226013,568.047302 419.673676,568.388855 
	C421.160950,568.739746 421.712341,567.562683 422.150635,566.485168 
	C423.130463,564.076233 425.031494,562.510010 427.792450,560.912415 
M407.312042,672.188721 
	C410.108490,672.621582 412.893860,673.161987 415.705078,673.451477 
	C417.749054,673.662048 420.106140,673.445557 420.769379,671.182312 
	C422.872437,664.005493 426.405487,657.484924 430.188324,651.173767 
	C428.133331,649.672607 426.424164,650.216187 424.820648,650.206604 
	C417.488831,650.162781 410.154968,650.292847 402.825043,650.169556 
	C397.147858,650.074036 395.068604,647.925964 394.835144,642.231323 
	C394.664581,638.070007 394.676239,633.901550 394.545593,629.738159 
	C393.297211,589.957153 392.003326,550.177612 390.811279,510.394928 
	C390.620850,504.039215 392.664185,502.069458 399.090790,501.830414 
	C408.243225,501.489929 417.397736,501.164581 426.554352,500.985840 
	C451.372955,500.501434 476.192688,500.069214 501.013092,499.690033 
	C505.157654,499.626709 509.275909,498.725922 513.463257,499.614105 
	C518.243286,500.628082 521.084961,502.940338 521.580566,508.204834 
	C522.207397,514.862854 522.130249,521.513794 522.306335,528.171082 
	C522.356750,530.076477 521.756104,532.195679 523.691101,533.976562 
	C526.151855,532.735840 526.726807,530.217224 527.722778,528.024475 
	C528.733765,525.798706 529.880554,523.443176 532.831543,524.771912 
	C535.505188,525.975708 535.229492,528.399231 534.382507,530.813904 
	C533.263672,534.003845 531.468689,536.786499 529.471130,539.466980 
	C522.187622,549.240479 512.003601,555.231934 501.558685,560.884155 
	C496.874420,563.419006 491.960175,565.611572 487.559631,568.568542 
	C480.990051,572.982971 480.698608,576.588135 486.120453,582.279236 
	C488.731628,585.019958 489.459900,587.586548 488.032135,591.241333 
	C484.272705,600.864868 486.481415,604.947449 496.286316,607.949341 
	C509.654816,612.042114 522.286987,608.523560 534.915405,604.518127 
	C558.872925,596.919067 573.526978,580.748291 579.302979,556.403564 
	C580.120972,552.955994 580.043945,549.494263 579.050598,546.034668 
	C578.552246,544.298950 578.085205,542.429321 578.206604,540.661560 
	C578.839539,531.443848 576.362915,522.966919 572.448669,514.787537 
	C567.972290,505.433533 562.324951,496.803711 556.241150,488.434479 
	C550.034668,479.896454 550.066040,479.874451 540.599731,483.691895 
	C539.982178,483.940918 539.357300,484.171875 538.734497,484.407776 
	C536.223083,485.359161 533.522034,485.839935 532.267151,482.891418 
	C531.049133,480.029602 533.705383,478.855194 535.659302,477.638916 
	C536.644836,477.025421 537.732605,476.574829 538.779053,476.060608 
	C547.930542,471.563446 556.523682,466.250153 564.356018,459.643738 
	C593.475037,435.082550 600.907593,391.129852 583.655823,360.694275 
	C581.744629,357.322510 580.064026,353.577881 575.702637,352.524414 
	C574.485535,344.873505 567.567017,342.143341 562.772217,337.591522 
	C561.134094,336.036438 560.207520,334.273621 559.749878,332.030060 
	C556.911438,318.116272 555.913879,303.582153 544.509949,292.813354 
	C541.574463,290.041290 539.324341,286.363800 536.167786,283.632233 
	C532.269470,280.258850 529.433228,280.228424 526.568481,284.352814 
	C523.274902,289.094482 519.462036,291.315186 513.506653,290.446777 
	C509.680450,289.888824 506.852112,292.558563 505.391815,295.966644 
	C503.970551,299.283752 506.408783,301.157013 508.820435,302.860870 
	C510.178925,303.820618 511.510406,304.841125 512.735352,305.963837 
	C523.815979,316.120026 527.638672,328.642853 524.003113,343.121918 
	C520.358398,357.636932 504.290863,366.436890 487.406128,363.158081 
	C473.588379,360.474823 464.324402,352.185211 460.772614,338.450012 
	C457.385315,325.350922 461.007385,314.180084 471.330566,305.196960 
	C476.592957,300.617645 483.121185,299.284882 489.475006,297.641846 
	C489.452362,292.227142 486.764679,288.341461 481.625885,287.599365 
	C473.851562,286.476715 465.765503,285.934082 458.414734,288.946930 
	C448.057373,293.192139 437.221313,294.467438 426.351501,295.832947 
	C421.350861,296.461090 416.001892,296.472168 411.749481,293.723694 
	C408.215637,291.439667 405.074188,291.368927 401.425873,292.248413 
	C399.810638,292.637756 398.171143,293.038727 396.522827,293.156189 
	C392.497467,293.442963 390.783417,291.649811 391.888885,287.854858 
	C392.443787,285.949982 392.002136,284.627228 391.124054,283.211792 
	C388.439026,278.883575 385.010956,275.875885 379.957520,273.940460 
	C375.584259,272.265533 371.507233,272.905487 367.278564,272.742706 
	C351.252258,272.125641 336.259369,275.833252 322.388306,283.835266 
	C317.838745,286.459839 315.713928,290.698090 316.038208,296.013123 
	C316.220245,298.996033 317.640808,301.242859 320.708374,301.654907 
	C324.625854,302.181213 328.462189,302.978577 332.581879,302.246063 
	C341.571320,300.647675 350.160004,301.730347 357.611786,307.760376 
	C370.797150,318.430084 372.850525,337.381317 362.171539,352.243835 
	C360.361786,354.762543 359.515045,356.818695 360.809753,359.932953 
	C365.582428,371.412933 368.380585,383.367859 368.194916,395.875824 
	C368.143341,399.350616 369.749695,400.558594 372.979736,400.761383 
	C378.932220,401.135071 384.271149,399.043427 389.095337,396.149628 
	C399.997498,389.609985 410.648529,390.003235 421.936462,395.198029 
	C431.478363,399.589325 441.414703,403.270050 452.313568,400.522980 
	C454.972412,399.852814 457.115204,400.362793 457.863922,403.141907 
	C458.624084,405.963470 456.668640,407.564606 454.352997,408.383301 
	C450.397034,409.781891 446.287018,410.154785 442.068085,409.773560 
	C432.962921,408.950836 424.527405,405.813904 416.311981,402.158203 
	C408.788727,398.810455 401.649261,398.318268 394.387085,402.703430 
	C391.980957,404.156311 389.295044,405.188263 386.657135,406.205444 
	C381.827820,408.067627 376.870667,410.067871 371.628174,408.869446 
	C367.616058,407.952332 366.860687,409.751678 366.162689,413.051636 
	C362.415710,430.766693 354.524078,446.277405 341.168030,458.772797 
	C338.856232,460.935638 336.564789,463.121399 334.306213,465.339600 
	C330.332855,469.241974 331.088776,474.318634 331.442719,479.024261 
	C331.725555,482.784546 335.804810,482.631989 338.391418,483.712006 
	C342.375854,485.375702 346.588531,486.484406 350.657867,487.957123 
	C352.451538,488.606262 354.046783,489.756622 353.572662,492.006256 
	C353.082733,494.331116 351.282593,495.193359 349.068634,495.082458 
	C347.753235,495.016571 346.372040,494.858185 345.160858,494.383240 
	C341.632263,492.999481 338.952240,494.041718 336.058685,496.341583 
	C329.547852,501.516479 322.931122,506.603760 314.848755,509.297729 
	C310.565826,510.725250 309.338898,513.688293 309.902954,518.291321 
	C311.017944,527.390930 309.206055,535.440369 300.375366,540.652100 
	C296.224304,543.101990 298.337799,547.655884 298.517365,551.227661 
	C298.671509,554.293213 301.621521,555.308044 304.316650,555.832947 
	C308.233673,556.596008 312.183960,557.187256 316.117737,557.865295 
	C322.452209,558.957153 324.388855,557.712524 325.993286,551.294067 
	C328.694794,540.486816 330.982544,529.561157 334.986938,519.126343 
	C335.797119,517.015198 336.790375,514.353638 339.911224,515.467163 
	C342.730835,516.473267 342.590881,519.124023 342.076874,521.427307 
	C341.317719,524.829102 340.171539,528.142761 339.251007,531.510620 
	C336.751160,540.656738 334.123169,549.773315 333.082184,559.248108 
	C332.646240,563.216064 333.615631,565.986816 338.019440,567.077209 
	C342.269714,568.129456 343.680664,571.897156 344.853149,575.626160 
	C347.503937,584.056641 344.451965,590.834473 337.951294,595.893372 
	C332.961456,599.776489 331.113464,604.188477 332.597321,610.190063 
	C332.836395,611.156921 333.039551,612.153198 333.084320,613.143799 
	C333.255310,616.928406 331.732422,619.137573 327.706238,617.830933 
	C324.920685,616.927002 322.596039,617.690063 320.737823,619.336121 
	C313.885437,625.406433 307.013824,631.514282 301.976196,639.280579 
	C299.852936,642.553955 298.851501,646.262024 299.045563,650.223145 
	C299.356964,656.579773 300.769745,662.708008 302.691010,668.758911 
	C304.029388,672.973999 306.745941,676.201538 310.322998,678.341492 
	C317.541992,682.660034 324.690308,686.768005 333.724335,687.209167 
	C341.610596,687.594299 349.370972,687.274902 357.125397,686.483459 
	C365.573273,685.621338 373.929504,684.000366 381.773987,680.483276 
	C383.679260,679.629028 385.466766,678.437317 385.295776,676.135315 
	C385.146851,674.130127 383.076996,673.875610 381.563751,673.315857 
	C375.130890,670.936401 369.020966,667.906128 363.262512,664.195801 
	C361.058197,662.775513 358.111847,661.242554 359.808075,657.996948 
	C361.621338,654.527466 364.406525,656.466797 366.678406,657.737000 
	C379.159668,664.714783 392.533905,669.162048 407.312042,672.188721 
M561.330933,678.800598 
	C564.796326,676.810059 568.232544,674.766235 571.736206,672.845459 
	C574.628418,671.259827 577.246643,671.305237 578.730103,674.779480 
	C579.447021,676.458557 580.460510,677.451294 582.310242,677.821045 
	C593.513000,680.060059 604.754822,680.978638 615.998962,678.377502 
	C624.795776,676.342529 625.719421,673.413147 620.292480,665.969360 
	C619.998230,665.565613 619.708069,665.157837 619.393677,664.770020 
	C611.637756,655.204163 603.421509,646.016968 596.604614,635.690491 
	C593.408142,630.848389 588.772644,627.608643 582.790405,626.611023 
	C577.237671,625.684998 575.095215,626.736267 573.408142,631.985962 
	C570.721741,640.345459 566.522461,647.859375 560.909790,654.560425 
	C556.399780,659.944885 551.342529,664.768005 545.186829,668.292725 
	C543.423462,669.302368 541.629333,669.507507 540.329224,667.616577 
	C539.189636,665.958984 539.864014,664.386963 541.153442,663.137939 
	C542.465759,661.866821 543.897827,660.714661 545.318298,659.560669 
	C564.385681,644.070129 570.359314,623.004028 570.627319,599.621155 
	C570.685364,594.554260 568.623108,593.412109 565.150574,596.213013 
	C554.468140,604.829285 542.457275,610.705444 529.223572,614.116150 
	C526.027161,614.940002 524.932678,616.739075 525.202698,619.893311 
	C525.628357,624.865601 525.980103,629.850220 526.149414,634.836914 
	C526.416931,642.713867 522.155273,647.561218 514.229919,648.286743 
	C509.097504,648.756470 503.934021,649.032715 498.780579,649.100220 
	C484.457153,649.287781 470.078949,650.122253 455.822327,649.183472 
	C442.300354,648.293152 435.413116,654.733093 430.885742,666.284485 
	C425.615631,679.730835 428.332428,690.893677 439.416046,698.905151 
	C448.256073,705.294983 458.426361,706.803162 468.852417,706.539185 
	C501.899292,705.702576 532.290161,695.697571 561.330933,678.800598 
M277.803741,358.832367 
	C277.548035,366.723053 277.289459,374.734222 270.408356,380.180603 
	C267.183105,382.733398 265.489349,385.869324 264.356079,389.613403 
	C262.374634,396.159668 262.680450,402.774017 263.655396,409.391968 
	C266.442413,428.310638 276.015808,443.456543 289.413788,456.708832 
	C293.414185,460.665680 296.735138,461.223328 301.700470,459.034485 
	C335.550201,444.113007 350.940979,402.316010 335.374237,366.867035 
	C334.531189,364.947266 333.270111,363.644592 330.995087,363.264648 
	C318.803558,361.228577 312.584534,353.025757 309.406372,341.890930 
	C307.688995,335.874023 300.416962,330.135010 294.212982,329.948395 
	C292.447876,329.895264 291.918945,330.856232 291.318787,332.089172 
	C288.961823,336.931213 285.668213,341.076050 281.901031,344.896667 
	C278.327332,348.520996 276.237183,352.698425 277.803741,358.832367 
M255.721710,417.541321 
	C251.853485,403.209106 252.103271,388.940765 256.112305,374.654114 
	C260.348877,359.556427 268.367676,346.704865 278.770874,335.151733 
	C280.445435,333.292053 283.632629,331.362976 282.202179,328.541412 
	C280.843018,325.860474 277.376038,327.055939 274.838226,327.060089 
	C264.042053,327.077850 254.556931,331.458496 246.262375,337.669617 
	C222.551620,355.424774 213.886414,379.805695 219.820511,408.210907 
	C225.792877,436.799469 243.995560,454.985077 272.867004,461.682678 
	C275.811981,462.365845 278.857422,463.478333 282.762909,461.930939 
	C270.030609,449.315430 260.434509,435.338623 255.721710,417.541321 
M396.865570,508.474213 
	C395.826385,510.348328 396.200714,512.391724 396.275604,514.356689 
	C397.220673,539.143982 398.303986,563.926331 399.161530,588.716431 
	C399.708496,604.529053 399.906250,620.353455 400.327057,636.170776 
	C400.509277,643.020386 401.503082,643.999939 408.269684,643.976257 
	C435.930695,643.879700 463.591736,643.757385 491.252289,643.577637 
	C497.075287,643.539856 502.895721,643.193542 508.718689,643.041199 
	C511.443726,642.969849 512.478210,641.842773 512.279297,638.972351 
	C511.888000,633.326233 511.837097,627.655029 511.710632,621.992737 
	C511.654907,619.498901 511.561096,617.326416 508.115143,617.279846 
	C504.378754,617.229370 504.208344,619.553284 504.315399,622.255310 
	C504.420898,624.917725 504.375641,627.596558 504.664490,630.238831 
	C505.113068,634.342773 503.294495,636.121399 499.307159,636.168884 
	C470.487549,636.511719 441.667633,636.839539 412.849518,637.282532 
	C408.505859,637.349304 406.870117,635.291260 406.724884,631.282593 
	C406.417542,622.799438 406.037231,614.319031 405.673126,605.838013 
	C405.315979,597.519287 404.855133,589.203918 404.592133,580.882263 
	C403.940063,560.248291 403.386780,539.611267 402.763672,518.976379 
	C402.654877,515.373291 404.434113,513.845520 407.897278,513.767456 
	C437.040680,513.110657 466.183990,512.450256 495.325745,511.725647 
	C499.306885,511.626678 501.147827,513.329895 501.267273,517.293823 
	C501.538116,526.281555 501.897095,535.267029 502.294830,544.250122 
	C502.380066,546.175964 501.777130,548.238464 503.180084,550.195618 
	C507.373474,549.754395 509.186371,547.567322 508.993652,543.283081 
	C508.507416,532.472107 507.942200,521.653442 507.931335,510.837341 
	C507.926575,506.101929 506.291229,504.909363 501.801849,505.024872 
	C468.165741,505.890350 434.524170,506.543732 400.885010,507.294617 
	C399.747528,507.320007 398.617432,507.675842 396.865570,508.474213 
M318.222229,336.231445 
	C332.963898,348.276245 342.111633,363.570282 345.906952,382.304382 
	C353.572266,420.140961 329.165741,459.046539 291.756195,468.080078 
	C285.588776,469.569397 279.287476,470.100830 272.952332,470.280396 
	C271.425049,470.323700 269.746552,470.528412 269.546265,472.464478 
	C269.374420,474.125488 270.484344,475.363983 271.899719,475.978760 
	C273.078857,476.490967 274.463531,476.757080 275.755035,476.749908 
	C298.927521,476.621490 318.997253,468.892578 333.908173,450.821289 
	C362.121490,416.628204 360.314178,369.222992 329.797882,336.994232 
	C320.651184,327.334229 309.796326,319.940979 296.544312,316.743866 
	C293.590210,316.031128 290.879211,316.558838 289.966949,319.575409 
	C288.921906,323.031067 292.390930,323.012177 294.317993,323.627930 
	C302.816345,326.343231 310.660095,330.233307 318.222229,336.231445 
M263.511322,550.918091 
	C264.828583,551.931763 266.149017,552.941284 267.462524,553.959778 
	C274.770752,559.626648 280.121063,558.762451 284.455261,550.562439 
	C290.521667,539.085327 290.454315,527.587036 282.954163,516.645081 
	C278.356384,509.937347 273.852448,509.605682 268.332886,515.585144 
	C265.638275,518.504272 263.456390,521.893066 260.994598,525.031799 
	C259.077972,527.475464 258.507233,530.040100 259.946503,532.918518 
	C261.300873,535.627136 261.226776,538.344666 259.997925,541.097961 
	C258.230164,545.058716 259.209656,548.212036 263.511322,550.918091 
M313.530060,482.004730 
	C308.681000,477.820282 303.363586,479.199219 297.975403,480.586090 
	C291.429321,482.270966 289.939209,486.893646 294.487122,492.003632 
	C295.962616,493.661530 297.047363,495.357727 297.312164,497.649170 
	C297.912933,502.848114 299.583405,504.185211 304.704712,503.570221 
	C313.723053,502.487244 321.398438,498.343689 328.422729,492.833466 
	C329.288635,492.154236 330.312408,491.366669 329.762421,489.730957 
	C324.659851,487.312958 319.430725,484.834961 313.530060,482.004730 
M434.679840,603.209778 
	C429.564453,599.304016 424.668549,604.619324 418.835541,602.867920 
	C420.627045,608.161438 426.030853,606.888672 427.922180,610.460266 
	C431.475555,606.798645 436.050690,604.354980 438.890839,608.710754 
	C442.919678,614.889648 448.219666,613.668213 453.679565,613.797607 
	C456.424896,613.862732 458.263245,613.126343 459.696411,610.483276 
	C461.748322,606.699158 464.945160,604.876892 469.236633,607.414124 
	C470.646362,608.247559 472.069122,608.698120 473.383636,607.545837 
	C475.703827,605.512024 478.152740,605.994141 480.930206,607.463928 
	C479.947266,604.521057 479.168091,602.188171 478.396118,599.876831 
	C473.516754,603.782471 471.922363,603.725525 466.465515,599.405212 
	C460.506866,604.440979 457.656616,604.265686 453.886719,598.631470 
	C450.673798,593.829712 444.221283,593.974670 441.252777,598.999756 
	C439.895294,601.297791 438.193878,602.910217 434.679840,603.209778 
M422.038483,575.570557 
	C421.303009,574.339172 420.448456,573.392578 418.743774,574.265137 
	C417.856964,576.640686 418.390411,579.134705 418.448639,581.594727 
	C418.472748,582.612793 419.027557,584.219666 419.771790,583.987488 
	C423.624542,582.785583 427.349792,585.965454 430.731567,584.687012 
	C435.886353,582.738586 438.879059,584.407471 441.619568,588.563354 
	C443.805237,591.877747 450.863770,591.733887 453.234833,588.571533 
	C458.099670,582.083191 459.340240,581.850891 466.270538,586.226746 
	C468.513275,584.786621 470.391510,582.509521 473.688873,583.113708 
	C476.694031,583.664368 477.751892,586.565552 480.418579,587.582520 
	C478.588318,584.897705 476.758057,582.212830 474.631531,579.093384 
	C471.045227,581.210144 467.981262,579.940613 465.322571,577.072021 
	C461.710846,580.405701 457.260986,582.324036 454.435913,577.858887 
	C450.399536,571.479126 444.808960,573.509583 439.459778,573.316833 
	C437.770416,573.255981 436.919006,574.277161 436.028778,575.681946 
	C431.474060,582.869751 427.390778,582.969055 422.038483,575.570557 
M483.649628,517.295227 
	C461.751556,518.050720 439.853485,518.806152 416.603424,519.608215 
	C419.600037,522.312927 421.798706,523.547241 422.856842,525.424438 
	C424.540039,528.410400 426.805542,529.094727 429.856049,528.864929 
	C431.845428,528.714966 433.859222,528.679810 435.849548,528.800049 
	C438.919342,528.985596 441.112732,528.334534 442.633972,525.134705 
	C443.877686,522.518616 446.179810,519.562927 449.735352,521.420044 
	C455.445404,524.402405 460.950195,520.502625 466.793091,521.369324 
	C470.408325,521.905518 474.065216,521.316711 477.089722,523.891113 
	C483.464813,519.220459 484.732147,519.335266 490.410919,525.367310 
	C491.587036,526.616577 492.799591,527.131592 494.385468,526.643555 
	C495.953674,526.160889 496.062134,524.711670 496.284027,523.410950 
	C497.026764,519.057617 495.536499,517.267822 491.097443,517.209961 
	C488.932556,517.181702 486.766418,517.251587 483.649628,517.295227 
M491.332886,547.745483 
	C495.700928,548.326416 497.505371,546.467346 496.950531,542.074158 
	C496.701874,540.105225 496.877777,538.086060 496.774445,536.094177 
	C496.699677,534.653137 497.000214,532.914001 495.032104,532.414001 
	C493.131866,531.931213 492.081055,532.874573 491.079742,534.536621 
	C487.039093,541.243591 484.417999,541.855530 477.346161,538.053101 
	C476.262146,538.747681 475.124420,540.106873 474.044159,540.062683 
	C468.565765,539.838562 462.921997,540.908203 457.711151,539.939697 
	C454.331238,539.311523 452.315063,539.163696 450.307892,541.396912 
	C452.157806,547.058228 456.033752,548.348877 461.520813,548.063782 
	C471.133728,547.564270 480.785278,547.809143 491.332886,547.745483 
M350.933502,358.670044 
	C364.005096,388.650818 361.070740,417.611877 345.221954,445.793488 
	C357.761444,429.350494 363.418030,410.896332 362.712463,390.339722 
	C361.999420,369.563690 349.751495,346.302277 338.607117,338.216492 
	C342.910675,344.831482 347.815430,350.773560 350.933502,358.670044 
M456.597412,618.471497 
	C453.437134,618.505859 450.268585,618.413879 447.119446,618.618958 
	C445.016693,618.755981 443.018036,618.991577 441.502350,621.150208 
	C436.827484,627.807922 434.668427,628.002319 427.763092,622.976440 
	C426.603577,624.281372 424.963531,625.199768 424.388489,627.126770 
	C426.307678,628.302856 428.346771,627.782593 430.262878,627.760559 
	C451.565826,627.516296 472.868286,627.221436 494.169708,626.868042 
	C496.028137,626.837158 498.715149,627.677979 499.335205,625.114807 
	C499.965332,622.510376 500.093109,619.556274 497.487915,617.679321 
	C495.505585,617.966187 495.259521,619.403870 494.780853,620.601501 
	C493.723083,623.248230 491.790161,626.050720 489.131989,625.426147 
	C484.597809,624.360657 480.318359,625.430725 476.049530,625.246521 
	C472.722870,625.102844 469.847778,624.379578 466.474457,625.797119 
	C464.050537,626.815552 461.798431,624.820984 460.199249,622.701660 
	C459.211243,621.392334 458.965485,619.558472 456.597412,618.471497 
M487.561340,312.913788 
	C483.808014,309.906250 479.791962,309.115814 475.748993,312.111572 
	C472.125214,314.796783 470.547424,318.501709 471.863831,323.006470 
	C472.994812,326.876740 475.749237,329.108002 479.697510,329.662170 
	C483.680359,330.221252 486.913940,328.676453 489.009766,325.296356 
	C491.543488,321.210052 491.378143,317.153412 487.561340,312.913788 
M435.326508,533.398315 
	C428.797699,532.489075 423.772736,534.264282 421.567291,541.168640 
	C425.636414,540.690674 427.979645,542.950256 429.946747,546.149597 
	C432.290802,549.961914 437.204926,549.938049 439.420776,546.024475 
	C440.763031,543.653809 442.834625,542.124451 444.903168,540.388428 
	C442.205414,537.447266 441.791870,532.237793 435.326508,533.398315 
M513.245728,531.400757 
	C513.532043,535.179382 512.611267,539.171509 514.875366,543.039734 
	C518.551270,537.639526 517.206238,509.058197 513.246277,506.463959 
	C513.246277,514.571228 513.246277,522.499512 513.245728,531.400757 
M333.025177,324.426208 
	C334.389618,325.126282 335.429077,326.851379 337.541077,325.754303 
	C338.754456,321.343048 337.853119,317.464233 333.627869,315.248566 
	C330.137329,313.418182 326.422729,313.198120 323.147003,317.352753 
	C326.397919,319.668457 329.431732,321.829498 333.025177,324.426208 
M520.106445,638.917175 
	C521.369446,632.516418 520.751648,626.105347 520.135925,619.705811 
	C520.015320,618.452026 519.783630,616.870056 517.871460,617.100159 
	C516.694458,617.241760 516.255249,618.233582 516.264954,619.276367 
	C516.324890,625.720947 515.949158,632.189392 517.179138,638.577515 
	C517.495483,640.220337 518.398010,640.363220 520.106445,638.917175 
M500.224518,343.758362 
	C498.352386,347.007629 498.476654,349.897308 502.140808,351.674622 
	C505.097687,353.108826 507.245758,351.650116 508.821808,349.096405 
	C509.927887,347.304138 509.785583,345.550659 508.387451,344.039948 
	C506.128510,341.599060 503.535278,341.403778 500.224518,343.758362 
M414.856689,535.636108 
	C416.310364,537.077271 418.054077,537.296936 419.044189,535.501038 
	C420.374725,533.087646 420.200989,530.347412 418.973083,527.844238 
	C418.429047,526.735291 417.268005,526.028015 416.044952,526.620117 
	C413.985687,527.617004 413.589355,529.692444 413.562286,531.699097 
	C413.547363,532.806091 414.135712,533.921265 414.856689,535.636108 
M436.637268,613.132812 
	C436.169922,612.191467 435.388824,611.226074 434.391663,611.600952 
	C431.489288,612.691895 431.388855,615.244019 431.846344,617.756226 
	C432.155121,619.451904 432.388916,621.899231 434.892700,621.396667 
	C437.502502,620.872803 437.629150,618.443665 437.426727,616.211182 
	C437.353180,615.399963 437.067383,614.607971 436.637268,613.132812 
M423.088043,612.974792 
	C421.942444,611.428101 420.678772,611.280945 419.509247,612.860779 
	C417.900848,615.033630 417.895569,617.460022 418.844696,619.880554 
	C419.293030,621.023865 420.244415,621.861084 421.550873,621.470581 
	C423.759308,620.810486 423.747833,618.823669 423.793671,617.024536 
	C423.822540,615.890198 423.576721,614.748962 423.088043,612.974792 
M471.402863,525.854187 
	C469.671753,525.744202 469.127350,527.041809 468.726013,528.296997 
	C467.979370,530.631897 468.135468,532.905334 469.857178,534.819336 
	C470.594025,535.638428 471.634552,535.885254 472.509552,535.108032 
	C474.409302,533.420471 473.768219,531.151611 473.658752,529.046021 
	C473.596161,527.842285 473.053711,526.820862 471.402863,525.854187 
M475.238800,619.613525 
	C475.857849,620.450867 476.647766,621.349426 477.699402,620.682251 
	C480.507965,618.900696 479.817505,616.049072 479.508636,613.453369 
	C479.346466,612.090149 478.466064,610.583862 476.876282,611.187805 
	C474.520508,612.082764 474.120758,614.337036 474.310303,616.626160 
	C474.377472,617.437561 474.688538,618.228699 475.238800,619.613525 
M483.067505,534.951782 
	C487.995087,534.927429 486.543304,531.220459 486.503510,528.618835 
	C486.478302,526.971741 485.392303,524.945435 483.398712,525.708740 
	C480.731110,526.730103 481.146729,529.463623 481.430878,531.758850 
	C481.547302,532.699463 482.159210,533.578735 483.067505,534.951782 
M457.269135,566.275391 
	C455.587128,568.669067 455.653503,571.201050 456.935730,573.670776 
	C457.669037,575.083191 458.856201,576.081726 460.436646,574.570496 
	C462.981110,572.137451 461.467621,567.162720 457.269135,566.275391 
M446.129700,534.145325 
	C448.135315,537.289124 449.815796,536.659668 450.684692,533.486938 
	C451.286835,531.288208 451.496674,528.860901 449.895935,526.816956 
	C449.342682,526.110535 448.468689,525.747498 447.702271,526.299866 
	C445.546448,527.853638 445.438660,530.173218 445.632111,532.546875 
	C445.658569,532.871277 445.798889,533.186462 446.129700,534.145325 
M462.646393,529.202759 
	C462.255310,527.521729 461.642853,525.842163 459.564301,526.084290 
	C458.063904,526.258972 457.618073,527.826416 457.469666,529.101135 
	C457.185059,531.545471 456.843384,534.939941 459.713135,535.330322 
	C463.299622,535.818176 462.547119,532.261719 462.646393,529.202759 
M447.705688,546.656433 
	C443.333435,545.289612 443.683350,548.759338 443.507050,551.100464 
	C443.364319,552.995911 443.885437,555.566101 446.352142,555.463745 
	C449.336609,555.339905 448.781586,552.498535 448.828888,550.487915 
	C448.854614,549.395142 448.377747,548.290527 447.705688,546.656433 
M420.476379,549.895447 
	C420.423676,552.615173 420.607819,555.506226 424.029449,555.711365 
	C425.693146,555.811035 425.799408,553.594971 425.792267,552.123901 
	C425.782898,550.204041 426.363373,547.831848 424.222931,546.791565 
	C422.180511,545.798828 421.433502,547.751587 420.476379,549.895447 
M458.416443,596.859680 
	C461.815918,598.633972 462.383423,596.239929 462.585480,593.832825 
	C462.764771,591.696289 462.582367,588.897400 460.060059,588.682556 
	C457.028564,588.424377 457.485077,591.401367 457.407806,593.418823 
	C457.371887,594.356201 457.789978,595.310913 458.416443,596.859680 
M466.355347,620.420410 
	C467.503601,619.782593 467.879822,618.681030 467.867126,617.502502 
	C467.844849,615.435608 468.550537,613.078064 466.339478,611.654907 
	C465.419922,611.062988 464.376740,611.529053 463.756683,612.423950 
	C462.315155,614.504517 462.223999,616.705688 463.387512,618.951538 
	C463.865845,619.874817 464.545441,620.538513 466.355347,620.420410 
M468.145935,568.817383 
	C468.167969,569.804749 468.083008,570.809204 468.236725,571.775635 
	C468.475769,573.278748 468.948029,574.937744 470.795654,574.885010 
	C472.759216,574.829041 472.870209,573.067139 472.952240,571.560059 
	C473.005951,570.574341 472.967346,569.576843 472.883179,568.592041 
	C472.764923,567.208679 472.362762,565.868835 470.775177,565.630798 
	C469.032013,565.369324 468.599823,566.733887 468.145935,568.817383 
M428.040955,574.966248 
	C432.434570,574.985168 431.700562,571.777893 431.489685,569.170532 
	C431.371796,567.713196 430.426453,565.932922 428.663086,566.515991 
	C425.898560,567.429993 426.145569,570.012512 426.489410,572.320618 
	C426.603546,573.086670 427.163910,573.786194 428.040955,574.966248 
M473.181763,588.597839 
	C468.424377,588.999756 470.361023,592.510437 470.359558,594.965515 
	C470.358734,596.308594 471.241791,597.891296 472.846924,597.366028 
	C475.659180,596.445740 474.608673,593.794739 474.669403,591.779663 
	C474.696869,590.869202 474.103363,589.940125 473.181763,588.597839 
M489.737061,620.424438 
	C491.330872,617.743408 491.815430,615.134644 488.853424,613.070374 
	C487.519440,612.140747 486.113922,612.525879 485.722900,614.145874 
	C485.020752,617.054932 485.149414,619.795776 488.718719,620.892700 
	C488.854401,620.934326 489.037048,620.823059 489.737061,620.424438 
M435.806549,589.555969 
	C432.961884,588.281250 432.718018,590.603516 432.454498,592.250977 
	C432.061981,594.704712 432.151581,597.187744 435.334229,598.132385 
	C437.555084,595.494873 437.393372,592.841492 435.806549,589.555969 
M424.259064,589.200195 
	C420.252228,591.909912 420.309723,594.774963 424.599030,597.383972 
	C426.364075,594.794312 426.243896,592.215637 424.259064,589.200195 
M412.874023,629.516052 
	C415.897675,625.859741 415.654968,623.633362 411.283691,620.058594 
	C411.621429,623.604553 409.928802,626.706848 412.874023,629.516052 
M280.820221,484.853668 
	C278.118073,484.563629 276.673401,485.927948 276.873108,488.487823 
	C276.971436,489.748688 278.290375,491.130188 279.749023,490.408112 
	C281.836060,489.375000 283.157867,487.670715 280.820221,484.853668 
z"/>
<path fill="#000000" opacity="1.000000" stroke="none" 
	d="
M196.861603,580.191772 
	C203.980286,592.473450 211.060394,604.355591 217.763931,616.446472 
	C219.884262,620.270752 222.297928,621.880676 226.778854,621.808472 
	C241.641098,621.568848 256.406799,622.831299 270.796051,626.809937 
	C281.602386,629.797852 283.932709,632.726562 283.163483,643.809570 
	C281.654907,665.544922 273.772491,683.601685 252.675491,693.389954 
	C250.543900,694.378906 249.169022,695.684814 249.037476,698.224365 
	C248.811935,702.578613 246.356262,705.187439 242.219070,706.399902 
	C226.783493,710.923340 211.371948,710.924194 195.996201,706.170227 
	C192.369659,705.048950 189.786743,702.828003 189.748489,698.707336 
	C189.721878,695.842468 187.849808,694.673950 185.675568,693.613098 
	C165.577576,683.806824 156.795074,666.884766 155.682724,645.350830 
	C154.974243,631.635620 156.528198,629.767029 169.954498,625.927979 
	C170.594955,625.744873 171.254242,625.627014 171.893433,625.440063 
	C177.333099,623.849609 177.750931,622.628174 174.001373,618.520813 
	C163.329803,606.831116 152.591934,595.201965 141.901810,583.529053 
	C139.447632,580.849243 136.016357,578.104248 138.370911,574.062683 
	C141.001083,569.548096 144.984116,566.048157 150.303543,564.941223 
	C152.860092,564.409302 154.475830,566.652222 155.943710,568.485779 
	C169.063232,584.873352 182.160049,601.279053 195.292984,617.655823 
	C196.444931,619.092346 197.199783,621.384583 200.151123,620.359619 
	C200.297821,617.431641 198.168243,615.553833 196.791840,613.454285 
	C186.104752,597.152344 175.303238,580.925476 164.582565,564.645447 
	C160.168732,557.942627 160.591812,556.196472 167.388245,551.887634 
	C168.653717,551.085327 169.936508,550.303223 171.255112,549.593140 
	C175.919662,547.081177 178.016296,547.584229 180.696823,552.165222 
	C186.081375,561.367371 191.356903,570.633362 196.861603,580.191772 
M232.979599,665.671204 
	C235.126511,664.801270 237.208435,663.447937 239.432098,663.148987 
	C247.171768,662.108459 254.783508,660.220154 262.621704,659.794495 
	C265.415222,659.642761 268.190826,658.885559 270.936035,658.240662 
	C272.238953,657.934570 273.604431,657.228821 273.259033,655.532898 
	C272.961395,654.071533 271.774170,653.307129 270.296631,653.357788 
	C268.810638,653.408752 267.328308,653.652527 265.851135,653.859802 
	C262.118896,654.383667 258.439850,655.913574 254.028198,654.309692 
	C254.931274,651.613403 254.302643,649.265747 250.989792,649.176025 
	C242.356873,648.942078 233.746750,648.739990 225.209610,650.808899 
	C213.811890,653.571167 202.785675,658.452026 190.617325,657.175049 
	C189.122498,657.018250 186.821503,656.569824 186.555283,658.869202 
	C186.304886,661.031982 188.513306,661.256531 190.057480,661.647583 
	C191.824905,662.095032 193.647385,662.479553 195.461227,662.564270 
	C207.746307,663.138245 220.022858,663.768921 232.979599,665.671204 
M246.225937,677.155701 
	C245.613113,672.798645 241.494751,673.351685 238.549606,671.265564 
	C237.223038,675.103821 231.976562,678.409302 236.176971,681.836182 
	C239.750961,684.752014 243.451233,681.091492 246.225937,677.155701 
z"/>
<path fill="#000000" opacity="1.000000" stroke="red"
	d="
M415.081604,369.771240 
	C413.764984,364.970581 416.975983,361.202179 421.318512,361.923584 
	C423.288452,362.250854 424.616699,363.439056 425.072632,365.364288 
	C425.553314,367.393982 424.427399,368.869537 422.914398,369.987061 
	C420.438324,371.815948 417.869812,372.342133 415.081604,369.771240 
z"/>
<path fill="#000000" opacity="1.000000" stroke="green"
	d="
M394.332031,371.284241 
	C393.323212,371.386108 392.650848,371.493988 392.004700,371.407043 
	C389.248962,371.036072 387.296356,369.601410 386.997711,366.739258 
	C386.757507,364.437286 388.171478,362.954010 390.339905,362.457611 
	C393.337463,361.771454 395.576324,363.200653 396.963043,365.695221 
	C398.394196,368.269623 397.283722,370.126129 394.332031,371.284241 
z"/>
</svg>